<svg xmlns="http://www.w3.org/2000/svg" viewBox="0 0 800 600" role="img" aria-label="Calculadora científica">
  <defs>
    <linearGradient id="bg" x1="0" y1="0" x2="1" y2="1">
      <stop offset="0%" stop-color="#edf4ff"/>
      <stop offset="100%" stop-color="#dde9ff"/>
    </linearGradient>
  </defs>
  <rect width="800" height="600" fill="url(#bg)"/>
  <rect x="190" y="90" width="420" height="390" rx="30" fill="#1d2635"/>
  <rect x="212" y="114" width="376" height="76" rx="15" fill="#303f53"/>
  <text x="400" y="165" text-anchor="middle" fill="#edf3ff" font-family="Arial, sans-serif" font-size="34" font-weight="700">CASIO</text>
  <g fill="#dfe9ff">
    <circle cx="260" cy="240" r="24"/><circle cx="330" cy="240" r="24"/><circle cx="400" cy="240" r="24"/><circle cx="470" cy="240" r="24"/><circle cx="540" cy="240" r="24"/>
    <circle cx="260" cy="310" r="24"/><circle cx="330" cy="310" r="24"/><circle cx="400" cy="310" r="24"/><circle cx="470" cy="310" r="24"/><circle cx="540" cy="310" r="24"/>
    <circle cx="260" cy="380" r="24"/><circle cx="330" cy="380" r="24"/><circle cx="400" cy="380" r="24"/><circle cx="470" cy="380" r="24"/><circle cx="540" cy="380" r="24"/>
  </g>
  <g fill="#8ea9ff">
    <rect x="220" y="214" width="74" height="44" rx="10"/>
    <rect x="290" y="214" width="74" height="44" rx="10"/>
    <rect x="360" y="214" width="74" height="44" rx="10"/>
    <rect x="430" y="214" width="74" height="44" rx="10"/>
    <rect x="500" y="214" width="74" height="44" rx="10"/>
    <rect x="220" y="284" width="74" height="44" rx="10"/>
    <rect x="290" y="284" width="74" height="44" rx="10"/>
    <rect x="360" y="284" width="74" height="44" rx="10"/>
    <rect x="430" y="284" width="74" height="44" rx="10"/>
    <rect x="500" y="284" width="74" height="44" rx="10"/>
    <rect x="220" y="354" width="74" height="44" rx="10"/>
    <rect x="290" y="354" width="74" height="44" rx="10"/>
    <rect x="360" y="354" width="74" height="44" rx="10"/>
    <rect x="430" y="354" width="74" height="44" rx="10"/>
    <rect x="500" y="354" width="74" height="44" rx="10"/>
  </g>
  <rect x="250" y="440" width="300" height="18" rx="9" fill="#bcc9f6"/>
</svg>
